<svg width="400" height="400" viewBox="0 0 400 400" fill="#7F56D9" xmlns="http://www.w3.org/2000/svg">
<path fill-rule="evenodd" clip-rule="evenodd" d="M25 174.849C25 140.373 25 168.607 25 149.879H375C375 181.092 375 140.373 375 174.849V187.334C375 208.02 358.211 224.789 337.5 224.789H270.711C260.765 224.789 251.226 228.735 244.194 235.759L209.321 270.59C197.908 281.99 195.079 299.405 202.297 313.825L211.18 331.57C213.117 335.44 212.911 340.036 210.632 343.716C208.355 347.397 204.332 349.638 200 349.638H87.5C52.9822 349.638 25 321.689 25 287.213V174.849Z" />
<path fill-rule="evenodd" clip-rule="evenodd" d="M281.43 328.068C286.165 333.085 286.165 341.22 281.43 346.237C276.694 351.253 269.015 351.253 264.28 346.237L228.924 308.782C224.189 303.765 224.189 295.63 228.924 290.614L264.28 253.159C269.015 248.141 276.694 248.141 281.429 253.159C286.165 258.175 286.165 266.311 281.43 271.327L254.649 299.698L281.43 328.068ZM314.28 271.327C309.544 266.311 309.544 258.177 314.28 253.159C319.015 248.143 326.694 248.143 331.43 253.159L366.785 290.614C371.52 295.631 371.52 303.765 366.785 308.782L331.43 346.237C326.694 351.254 319.015 351.254 314.28 346.237C309.544 341.22 309.544 333.085 314.28 328.068L341.06 299.698L314.28 271.327Z" />
<path fill-rule="evenodd" clip-rule="evenodd" d="M87.5 50C52.9822 50 25 77.9485 25 112.425V124.909H375V112.425C375 77.9485 347.017 50 312.5 50H87.5ZM75 99.9397C81.9035 99.9397 87.5 94.3499 87.5 87.4547C87.5 80.5596 81.9035 74.9698 75 74.9698C68.0965 74.9698 62.5 80.5596 62.5 87.4547C62.5 94.3499 68.0965 99.9397 75 99.9397ZM112.5 99.9397C119.404 99.9397 125 94.3499 125 87.4547C125 80.5596 119.404 74.9698 112.5 74.9698C105.596 74.9698 100 80.5596 100 87.4547C100 94.3499 105.596 99.9397 112.5 99.9397ZM162.5 87.4547C162.5 94.3499 156.904 99.9397 150 99.9397C143.096 99.9397 137.5 94.3499 137.5 87.4547C137.5 80.5596 143.096 74.9698 150 74.9698C156.904 74.9698 162.5 80.5596 162.5 87.4547Z" />
</svg>
