<svg width="400" height="400" viewBox="0 0 400 400" fill="none" xmlns="http://www.w3.org/2000/svg">
<rect width="400" height="400" rx="16" fill="#7F56D9"/>
<path fill-rule="evenodd" clip-rule="evenodd" d="M80 182.611C80 158.97 80 178.33 80 165.489H320C320 186.891 320 158.97 320 182.611V191.172C320 205.357 308.488 216.855 294.286 216.855H248.488C241.667 216.855 235.127 219.561 230.304 224.378L206.392 248.262C198.565 256.079 196.625 268.021 201.575 277.909L207.666 290.077C208.995 292.73 208.853 295.882 207.291 298.406C205.729 300.929 202.971 302.466 200 302.466H122.857C99.1878 302.466 80 283.301 80 259.661V182.611Z" fill="#F9F9F9"/>
<path fill-rule="evenodd" clip-rule="evenodd" d="M255.838 287.676C259.084 291.115 259.084 296.694 255.838 300.134C252.59 303.573 247.324 303.573 244.078 300.134L219.833 274.45C216.586 271.011 216.586 265.432 219.833 261.992L244.078 236.309C247.324 232.868 252.59 232.868 255.837 236.309C259.084 239.749 259.084 245.327 255.838 248.767L237.473 268.221L255.838 287.676ZM278.363 248.767C275.116 245.327 275.116 239.75 278.363 236.309C281.61 232.869 286.876 232.869 290.123 236.309L314.367 261.992C317.614 265.433 317.614 271.011 314.367 274.45L290.123 300.134C286.876 303.574 281.61 303.574 278.363 300.134C275.116 296.694 275.116 291.115 278.363 287.676L296.727 268.221L278.363 248.767Z" fill="#F9F9F9"/>
<path fill-rule="evenodd" clip-rule="evenodd" d="M122.857 97C99.1878 97 80 116.165 80 139.805V148.367H320V139.805C320 116.165 300.812 97 277.143 97H122.857ZM114.286 131.244C119.02 131.244 122.857 127.411 122.857 122.683C122.857 117.955 119.02 114.122 114.286 114.122C109.552 114.122 105.714 117.955 105.714 122.683C105.714 127.411 109.552 131.244 114.286 131.244ZM140 131.244C144.734 131.244 148.571 127.411 148.571 122.683C148.571 117.955 144.734 114.122 140 114.122C135.266 114.122 131.429 117.955 131.429 122.683C131.429 127.411 135.266 131.244 140 131.244ZM174.286 122.683C174.286 127.411 170.448 131.244 165.714 131.244C160.98 131.244 157.143 127.411 157.143 122.683C157.143 117.955 160.98 114.122 165.714 114.122C170.448 114.122 174.286 117.955 174.286 122.683Z" fill="#F9F9F9"/>
</svg>
