<svg width="400" height="400" viewBox="0 0 400 400" fill="#E9D7FE" xmlns="http://www.w3.org/2000/svg">
<path fill-rule="evenodd" clip-rule="evenodd" d="M10 172.551C10 135.12 10 165.773 10 145.441H390C390 179.328 390 135.12 390 172.551V186.106C390 208.565 371.772 226.771 349.286 226.771H276.772C265.973 226.771 255.617 231.056 247.982 238.682L210.12 276.498C197.728 288.875 194.657 307.783 202.494 323.439L212.138 342.704C214.242 346.907 214.018 351.896 211.544 355.892C209.071 359.888 204.704 362.321 200 362.321H77.8571C40.3807 362.321 10 331.977 10 294.546V172.551Z"/>
<path fill-rule="evenodd" clip-rule="evenodd" d="M288.41 338.903C293.55 344.349 293.55 353.182 288.41 358.628C283.267 364.075 274.93 364.075 269.79 358.628L231.403 317.963C226.262 312.517 226.262 303.684 231.403 298.238L269.79 257.573C274.93 252.125 283.267 252.125 288.408 257.573C293.55 263.019 293.55 271.852 288.41 277.298L259.333 308.1L288.41 338.903ZM324.075 277.298C318.933 271.852 318.933 263.02 324.075 257.573C329.216 252.126 337.553 252.126 342.695 257.573L381.081 298.238C386.222 303.686 386.222 312.517 381.081 317.963L342.695 358.628C337.553 364.076 329.216 364.076 324.075 358.628C318.933 353.182 318.933 344.349 324.075 338.903L353.151 308.1L324.075 277.298Z"/>
<path fill-rule="evenodd" clip-rule="evenodd" d="M77.8571 37C40.3807 37 10 67.3441 10 104.775V118.33H390V104.775C390 67.3441 359.619 37 322.143 37H77.8571ZM64.2857 91.2202C71.7809 91.2202 77.8571 85.1513 77.8571 77.6652C77.8571 70.179 71.7809 64.1101 64.2857 64.1101C56.7905 64.1101 50.7143 70.179 50.7143 77.6652C50.7143 85.1513 56.7905 91.2202 64.2857 91.2202ZM105 91.2202C112.495 91.2202 118.571 85.1513 118.571 77.6652C118.571 70.179 112.495 64.1101 105 64.1101C97.5048 64.1101 91.4286 70.179 91.4286 77.6652C91.4286 85.1513 97.5048 91.2202 105 91.2202ZM159.286 77.6652C159.286 85.1513 153.21 91.2202 145.714 91.2202C138.219 91.2202 132.143 85.1513 132.143 77.6652C132.143 70.179 138.219 64.1101 145.714 64.1101C153.21 64.1101 159.286 70.179 159.286 77.6652Z"/>
</svg>
